{"asset":{"version":"2.0","generator":"babylon.js glTF exporter for 3dsmax 2021 v20210519.2"},"scene":0,"scenes":[{"nodes":[0,1,2]}],"nodes":[{"mesh":0,"translation":[-0.001270622,0.222816467,0.853031456],"rotation":[-1.0,4.371139E-08,4.371139E-08,-1.91068547E-15],"name":"object_enviro"},{"mesh":1,"rotation":[0.0,-1.0,0.0,4.371139E-08],"name":"enviroment_enviro"},{"mesh":2,"translation":[0.0,0.0,-1.57963133],"name":"projector"}],"meshes":[{"primitives":[{"attributes":{"POSITION":1,"NORMAL":2,"TEXCOORD_0":3},"indices":0,"material":0}],"name":"object_enviro"},{"primitives":[{"attributes":{"POSITION":5,"NORMAL":6,"TEXCOORD_0":7},"indices":4,"material":0}],"name":"enviroment_enviro"},{"primitives":[{"attributes":{"POSITION":9,"NORMAL":10,"TEXCOORD_0":11},"indices":8,"material":1}],"name":"projector"}],"accessors":[{"bufferView":0,"componentType":5123,"count":276,"type":"SCALAR","name":"accessorIndices"},{"bufferView":1,"componentType":5126,"count":276,"max":[1.07953739,1.64174271,0.5865116],"min":[-1.01139164,-1.64174461,-0.5865116],"type":"VEC3","name":"accessorPositions"},{"bufferView":1,"byteOffset":3312,"componentType":5126,"count":276,"type":"VEC3","name":"accessorNormals"},{"bufferView":2,"componentType":5126,"count":276,"type":"VEC2","name":"accessorUVs"},{"bufferView":0,"byteOffset":552,"componentType":5123,"count":126,"type":"SCALAR","name":"accessorIndices"},{"bufferView":1,"byteOffset":6624,"componentType":5126,"count":126,"max":[6.105589,2.49585867,3.68811679],"min":[-6.105589,-2.49585843,-3.68811679],"type":"VEC3","name":"accessorPositions"},{"bufferView":1,"byteOffset":8136,"componentType":5126,"count":126,"type":"VEC3","name":"accessorNormals"},{"bufferView":2,"byteOffset":2208,"componentType":5126,"count":126,"type":"VEC2","name":"accessorUVs"},{"bufferView":0,"byteOffset":804,"componentType":5123,"count":168,"type":"SCALAR","name":"accessorIndices"},{"bufferView":1,"byteOffset":9648,"componentType":5126,"count":168,"max":[0.25,0.160320252,0.513391137],"min":[-0.25,-0.160320222,-0.4],"type":"VEC3","name":"accessorPositions"},{"bufferView":1,"byteOffset":11664,"componentType":5126,"count":168,"type":"VEC3","name":"accessorNormals"},{"bufferView":2,"byteOffset":3216,"componentType":5126,"count":168,"type":"VEC2","name":"accessorUVs"}],"bufferViews":[{"buffer":0,"byteLength":1140,"name":"bufferViewScalar"},{"buffer":0,"byteOffset":1140,"byteLength":13680,"byteStride":12,"name":"bufferViewFloatVec3"},{"buffer":0,"byteOffset":14820,"byteLength":4560,"byteStride":8,"name":"bufferViewFloatVec2"}],"buffers":[{"uri":"environment.bin","byteLength":19380}],"materials":[{"pbrMetallicRoughness":{"metallicFactor":0.01},"name":"base_mat","extras":{"babylonSeparateCullingPass":false}},{"pbrMetallicRoughness":{"baseColorFactor":[0.619607866,0.6392157,0.6745098,1.0],"metallicFactor":0.01},"name":"projector","extras":{"babylonSeparateCullingPass":false}}]}